<svg xmlns="http://www.w3.org/2000/svg" version="1.1" xmlns:xlink="http://www.w3.org/1999/xlink" viewBox="0 0 200 200"><rect width="200" height="200" fill="url('#gradient')"></rect><defs><linearGradient id="gradient" gradientTransform="rotate(0 0.5 0.5)"><stop offset="0%" stop-color="#1f9be3"></stop><stop offset="100%" stop-color="#f3fc41"></stop></linearGradient></defs><g><g fill="#0e5278" transform="matrix(2.9209329965829745,0,0,2.9209329965829745,2.9784338109756447,121.63173488925247)" stroke="#0d2736" stroke-width="0.2"><path d="M12.24-14.22L12.24-11.57L7.97-11.57L7.97 0L4.54 0L4.54-11.57L0.35-11.57L0.35-14.22L12.24-14.22ZM21.13 0L17.84 0Q17.67-0.32 17.53-0.95L17.53-0.95Q16.62 0.20 14.99 0.20L14.99 0.20Q13.50 0.20 12.45-0.71Q11.41-1.61 11.41-2.98L11.41-2.98Q11.41-4.70 12.68-5.58Q13.95-6.46 16.37-6.46L16.37-6.46L17.38-6.46L17.38-7.01Q17.38-8.47 16.12-8.47L16.12-8.47Q14.95-8.47 14.95-7.31L14.95-7.31L11.66-7.31Q11.66-8.85 12.96-9.80Q14.27-10.76 16.29-10.76Q18.31-10.76 19.48-9.78Q20.65-8.79 20.68-7.07L20.68-7.07L20.68-2.39Q20.70-0.94 21.13-0.17L21.13-0.17L21.13 0ZM15.78-2.15L15.78-2.15Q16.40-2.15 16.80-2.41Q17.21-2.68 17.38-3.01L17.38-3.01L17.38-4.70L16.43-4.70Q14.71-4.70 14.71-3.15L14.71-3.15Q14.71-2.71 15.01-2.43Q15.31-2.15 15.78-2.15ZM25.98-15L25.98 0L22.68 0L22.68-15L25.98-15ZM34.55 0L32.25-3.94L31.32-3.01L31.32 0L28.03 0L28.03-15.01L31.32-15.01L31.32-7.04L31.65-7.48L34.13-10.57L38.08-10.57L34.38-6.22L38.32 0L34.55 0ZM48.18 0L44.89 0Q44.72-0.32 44.58-0.95L44.58-0.95Q43.67 0.20 42.04 0.20L42.04 0.20Q40.55 0.20 39.50-0.71Q38.46-1.61 38.46-2.98L38.46-2.98Q38.46-4.70 39.73-5.58Q41.00-6.46 43.42-6.46L43.42-6.46L44.43-6.46L44.43-7.01Q44.43-8.47 43.17-8.47L43.17-8.47Q42.00-8.47 42.00-7.31L42.00-7.31L38.71-7.31Q38.71-8.85 40.01-9.80Q41.32-10.76 43.34-10.76Q45.36-10.76 46.53-9.78Q47.71-8.79 47.73-7.07L47.73-7.07L47.73-2.39Q47.75-0.94 48.18-0.17L48.18-0.17L48.18 0ZM42.83-2.15L42.83-2.15Q43.45-2.15 43.85-2.41Q44.26-2.68 44.43-3.01L44.43-3.01L44.43-4.70L43.48-4.70Q41.76-4.70 41.76-3.15L41.76-3.15Q41.76-2.71 42.06-2.43Q42.36-2.15 42.83-2.15ZM56.01-10.64L55.95-7.59L54.86-7.67Q53.31-7.67 52.87-6.69L52.87-6.69L52.87 0L49.58 0L49.58-10.57L52.67-10.57L52.77-9.21Q53.60-10.76 55.09-10.76L55.09-10.76Q55.62-10.76 56.01-10.64L56.01-10.64ZM66.08 0L62.79 0Q62.62-0.32 62.48-0.95L62.48-0.95Q61.57 0.20 59.94 0.20L59.94 0.20Q58.45 0.20 57.40-0.71Q56.36-1.61 56.36-2.98L56.36-2.98Q56.36-4.70 57.63-5.58Q58.90-6.46 61.32-6.46L61.32-6.46L62.33-6.46L62.33-7.01Q62.33-8.47 61.07-8.47L61.07-8.47Q59.90-8.47 59.90-7.31L59.90-7.31L56.61-7.31Q56.61-8.85 57.92-9.80Q59.22-10.76 61.24-10.76Q63.26-10.76 64.43-9.78Q65.61-8.79 65.63-7.07L65.63-7.07L65.63-2.39Q65.65-0.94 66.08-0.17L66.08-0.17L66.08 0ZM60.73-2.15L60.73-2.15Q61.35-2.15 61.75-2.41Q62.16-2.68 62.33-3.01L62.33-3.01L62.33-4.70L61.38-4.70Q59.66-4.70 59.66-3.15L59.66-3.15Q59.66-2.71 59.96-2.43Q60.26-2.15 60.73-2.15Z"></path></g></g></svg>